# AST/ASF file generated using VICON BodyLanguage
# -----------------------------------------------
:version 1.10
:name VICON
:units
  mass 1.0
  length 0.45
  angle deg
:documentation
   .ast/.asf automatically generated from VICON data using
   VICON BodyBuilder and BodyLanguage model FoxedUp or BRILLIANT.MOD
:root
   order TX TY TZ RX RY RZ
   axis XYZ
   position 0 0 0  
   orientation 0 0 0 
:bonedata
  begin
     id 1 
     name lhipjoint
     direction 0.643824 -0.71708 0.266994 
     length 2.52133 
     axis 0 0 0  XYZ
  end
  begin
     id 2 
     name lfemur
     direction 0.34202 -0.939693 0  
     length 7.51824  
     axis 0 0 20  XYZ
    dof rx ry rz
    limits (-160.0 20.0)
           (-70.0 70.0)
           (-60.0 70.0)
  end
  begin
     id 3 
     name ltibia
     direction 0.34202 -0.939693 0   
     length 7.3685   
     axis 0 0 20   XYZ
    dof rx
    limits (-10.0 170.0)
  end
  begin
     id 4 
     name lfoot
     direction 0.105419 -0.289636 0.951314   
     length 2.20972   
     axis -90 7.62852e-016 20   XYZ
    dof rx rz
    limits (-45.0 90.0)
           (-70.0 20.0)
  end
  begin
     id 5 
     name ltoes
     direction 1.53549e-011 -4.21833e-011 1   
     length 1.10139   
     axis -90 7.62852e-016 20   XYZ
    dof rx
    limits (-90.0 20.0)
  end
  begin
     id 6 
     name rhipjoint
     direction -0.608823 -0.743445 0.276811   
     length 2.43192  
     axis 0 0 0  XYZ 
  end
  begin
     id 7 
     name rfemur
     direction -0.34202 -0.939693 0   
     length 7.69715   
     axis 0 0 -20   XYZ
    dof rx ry rz
    limits (-160.0 20.0)
           (-70.0 70.0)
           (-70.0 60.0)
  end
  begin
     id 8 
     name rtibia
     direction -0.34202 -0.939693 0   
     length 7.44924   
     axis 0 0 -20   XYZ
    dof rx
    limits (-10.0 170.0)
 end
 begin
     id 9 
     name rfoot
     direction -0.103614 -0.284677 0.953007   
     length 2.22623  
     axis -90 -7.62852e-016 -20   XYZ
    dof rx rz
    limits (-45.0 90.0)
           (-20.0 70.0)
  end
  begin
     id 10 
     name rtoes
     direction -1.53537e-011 -4.22026e-011 1   
     length 1.11   
     axis -90 -7.62852e-016 -20   XYZ
    dof rx
    limits (-90.0 20.0)
  end
  begin
     id 11 
     name lowerback
     direction -0.0101212 0.99662 -0.0815298   
     length 2.08277   
     axis 0 0 0   XYZ
    dof rx ry rz
    limits (-20.0 45.0)
           (-30.0 30.0)
           (-30.0 30.0)
  end
  begin
     id 12 
     name upperback
     direction 0.024314 0.999591 -0.0150645   
     length 2.08524   
     axis 0 0 0   XYZ
    dof rx ry rz
    limits (-20.0 45.0)
           (-30.0 30.0)
           (-30.0 30.0)
  end
  begin
     id 13 
     name thorax
     direction 0.0285959 0.999323 0.0231357   
     length 2.09645   
     axis 0 0 0   XYZ
    dof rx ry rz
    limits (-20.0 45.0)
           (-30.0 30.0)
           (-30.0 30.0)
  end
  begin
     id 14 
     name lowerneck
     direction -0.065512 0.979301 0.191515   
     length 1.63798   
     axis 0 0 0   XYZ
    dof rx ry rz
    limits (-20.0 45.0)
           (-30.0 30.0)
           (-30.0 30.0)
  end
  begin
     id 15 
     name upperneck
     direction 0.0498479 0.98191 -0.182667   
     length 1.68731   
     axis 0 0 0   XYZ
    dof rx ry rz
    limits (-20.0 45.0)
           (-30.0 30.0)
           (-30.0 30.0)
  end
  begin
     id 16
     name head
     direction 0.0230358 0.996257 -0.0833175  
     length 1.69785  
     axis 0 0 0   XYZ
    dof rx ry rz
    limits (-20.0 45.0)
           (-30.0 30.0)
           (-30.0 30.0)
  end
  begin
     id 17 
     name lclavicle
     direction 0.967963 0.201165 -0.150269  
     length 3.63976  
     axis 0 0 0   XYZ
    dof ry rz
    limits (-20.0 10.0)
           (0.0 20.0)
  end
  begin
     id 18 
     name lhumerus
     direction 1 -4.48954e-011 -2.92837e-028   
     length 5.32462   
     axis 180 -30 -90   XYZ
    dof rx ry rz
    limits (-60.0 90.0)
           (-90.0 90.0)
           (-90.0 90.0)
  end
  begin
     id 19
     name lradius
     direction 1 -4.48958e-011 -6.39511e-027   
     length 3.48402   
     axis 180 -30 -90   XYZ
    dof rx
    limits (-10.0 170.0)
  end
  begin
     id 20
     name lwrist
     direction 1 -4.48975e-011 -1.1413e-026   
     length 1.74201   
     axis 6.88575e-015 90 90   XYZ
    dof ry
    limits (-180.0 0.0)
 end
  begin
     id 21 
     name lhand
     direction 1 -4.48899e-011 -2.28192e-026   
     length 0.572476   
     axis 1.45643e-014 90 90   XYZ
    dof rx rz
    limits (-90.0 90.0)
           (-45.0 45.0)
  end
  begin
     id 22 
     name lfingers
     direction 1 -4.49155e-011 -4.5684e-026   
     length 0.461545   
     axis 2.91283e-014 90 90   XYZ
    dof rx
    limits (0.0 90.0)
  end
  begin
     id 23
     name lthumb
     direction 0.707107 -6.34943e-011 0.707107   
     length 0.662688   
     axis -90 45 -2.25915e-014   XYZ
    dof rx rz
    limits (-45.0 45.0)
           (-45.0 45.0)
  end
  begin
     id 24 
     name rclavicle
     direction -0.964103 0.264019 -0.0282629   
     length 3.54491  
     axis 0 0 0   XYZ 
    dof ry rz
    limits (-10.0 20.0)
           (-20.0 0.0)
  end
  begin
     id 25 
     name rhumerus
     direction -1 -4.48964e-011 -2.45032e-027  
     length 5.33589   
     axis 180 30 90   XYZ
    dof rx ry rz
    limits (-90.0 60.0)
           (-90.0 90.0)
           (-90.0 90.0)
  end
  begin
     id 26 
     name rradius
     direction -1 -4.48987e-011 -1.55093e-027   
     length 3.64134   
     axis 180 30 90   XYZ
    dof rx
    limits (-10.0 170.0)
  end
  begin
     id 27 
     name rwrist
     direction -1 -4.4897e-011 -1.14128e-026   
     length 1.82067   
     axis 6.88575e-015 -90 -90   XYZ
    dof ry
    limits (-180.0 0.0)
  end
  begin
     id 28
     name rhand
     direction -1 -4.49021e-011 -2.28301e-026   
     length 0.734811   
     axis 1.45643e-014 -90 -90   XYZ
    dof rx rz
    limits (-90.0 90.0)
           (-45.0 45.0)
  end
  begin
     id 29
     name rfingers
     direction -1 -4.48862e-011 -4.56319e-026   
     length 0.592424   
     axis 2.91283e-014 -90 -90   XYZ
    dof rx
    limits (0.0 90.0)
  end
  begin
     id 30
     name rthumb
     direction -0.707107 -6.34978e-011 0.707107   
     length 0.850605   
     axis -90 -45 2.25915e-014   XYZ
    dof rx rz
    limits (-45.0 45.0)
           (-45.0 45.0)
  end
:hierarchy
  begin
    root lhipjoint rhipjoint lowerback
    lhipjoint lfemur
    lfemur ltibia
    ltibia lfoot
    lfoot ltoes
    rhipjoint rfemur
    rfemur rtibia
    rtibia rfoot
    rfoot rtoes
    lowerback upperback
    upperback thorax
    thorax lowerneck lclavicle rclavicle
    lowerneck upperneck
    upperneck head
    lclavicle lhumerus
    lhumerus lradius
    lradius lwrist
    lwrist lhand lthumb
    lhand lfingers
    rclavicle rhumerus
    rhumerus rradius
    rradius rwrist
    rwrist rhand rthumb
    rhand rfingers
  end

#!OML:ASF F:\VICON\USERDATA\INSTALL\rory3\rory3.ASF
:FULLY-SPECIFIED
:DEGREES
115
root 0.796425 17.9708 12.3463 -171.172 -5.49048 179.06
lowerback 3.14757 -0.0275495 -1.68123
upperback 0.897172 -0.116557 2.01141
thorax -0.836992 -0.0778337 3.01443
lowerneck -11.4534 3.26981 -11.6977
upperneck 38.7327 1.91839 3.94197
head 15.2625 -1.90762 3.64167
rclavicle 8.94531e-016 2.38542e-014
rhumerus -31.4022 -5.70124 -79.8047
rradius 34.1708
rwrist 18.1017
rhand -19.8493 3.04511
rfingers 7.12502
rthumb 6.48531 -26.8356
lclavicle 8.94531e-016 2.38542e-014
lhumerus -31.798 10.4934 81.9573
lradius 33.2076
lwrist -2.73279
lhand -17.4208 24.1287
lfingers 7.12502
lthumb 8.82931 53.9239
rfemur -14.4988 1.08997 25.6193
rtibia 23.0237
rfoot -15.2847 -2.66517
rtoes 15.5855
lfemur -38.8458 -1.29418 -18.3978
ltibia 62.8896
lfoot -6.71869 -3.49804
ltoes -22.8226
116
root 0.807544 17.9884 12.3514 -171.207 -5.57653 179.09
lowerback 3.2981 0.00253661 -1.68843
upperback 0.938239 -0.0817577 2.08564
thorax -0.881261 -0.0621872 3.09429
lowerneck -11.3522 3.2355 -11.9039
upperneck 38.6947 1.84186 4.11299
head 15.2205 -1.9434 3.73812
rclavicle -2.21645e-014 -1.90833e-014
rhumerus -31.3053 -5.4888 -79.7461
rradius 34.0545
rwrist 18.2574
rhand -19.888 3.06472
rfingers 7.12502
rthumb 6.44794 -26.8171
lclavicle -2.21645e-014 -1.90833e-014
lhumerus -31.7923 10.6933 82.0249
lradius 33.1657
lwrist -2.73048
lhand -17.4925 24.2575
lfingers 7.12502
lthumb 8.7601 54.0557
rfemur -14.1243 1.1562 25.6859
rtibia 22.2627
rfoot -14.8769 -2.79975
rtoes 16.2863
lfemur -40.1541 -0.869055 -18.5034
ltibia 65.1043
lfoot -7.77001 -3.10427
ltoes -22.6524
117
root 0.818798 18.006 12.3552 -171.296 -5.73088 179.125
lowerback 3.50212 0.00838871 -1.67003
upperback 0.973983 -0.0788793 2.14418
thorax -0.95891 -0.062029 3.145
lowerneck -11.2031 3.21633 -12.1008
upperneck 38.6468 1.76431 4.30899
head 15.1615 -1.97589 3.84204
rclavicle 2.78299e-015 2.46493e-014
rhumerus -31.3 -5.36679 -79.6849
rradius 33.9771
rwrist 18.4498
rhand -19.8799 2.95902
rfingers 7.12502
rthumb 6.45577 -26.9226
lclavicle 2.78299e-015 2.46493e-014
lhumerus -31.8504 10.9247 82.0141
lradius 33.0924
lwrist -2.76498
lhand -17.6489 24.3769
lfingers 7.12502
lthumb 8.60921 54.1814
rfemur -13.6306 1.1915 25.769
rtibia 21.4145
rfoot -14.5736 -3.22073
rtoes 16.0263
lfemur -41.3868 -0.496709 -18.6425
ltibia 67.2921
lfoot -8.65923 -2.82174
ltoes -22.4871
118
root 0.828339 18.0274 12.3553 -171.353 -5.90464 179.039
lowerback 3.64627 0.00654864 -1.74639
upperback 1.00363 -0.0872697 2.16945
thorax -1.00841 -0.0667333 3.21515
lowerneck -11.0558 3.21451 -12.1955
upperneck 38.66 1.71773 4.36671
head 15.1357 -2.00805 3.87329
rclavicle 9.14409e-015 -1.59028e-014
rhumerus -31.2519 -5.39433 -79.5748
rradius 33.8023
rwrist 18.6547
rhand -19.8725 2.86124
rfingers 7.12502
rthumb 6.46287 -27.0202
lclavicle 9.14409e-015 -1.59028e-014
lhumerus -31.969 11.0572 82.0316
lradius 33.0871
lwrist -2.68549
lhand -17.7463 24.3256
lfingers 7.12502
lthumb 8.5152 54.1339
rfemur -13.1244 1.16318 25.7171
rtibia 20.5337
rfoot -14.1859 -3.4429
rtoes 16.3346
lfemur -42.5971 -0.211591 -18.9094
ltibia 69.417
lfoot -9.50098 -2.73107
ltoes -22.0988
119
root 0.838239 18.0539 12.3525 -171.299 -6.00164 178.935
lowerback 3.63342 0.0347934 -1.84376
upperback 1.03398 -0.0533987 2.16709
thorax -0.972278 -0.0505854 3.26608
lowerneck -11.1481 3.19265 -12.0536
upperneck 38.8125 1.67538 4.2538
head 15.2434 -2.03474 3.79839
rclavicle -9.93923e-015 -1.74931e-014
rhumerus -31.067 -5.62319 -79.4587
rradius 33.5159
rwrist 18.8817
rhand -19.8346 2.82582
rfingers 7.12502
rthumb 6.49953 -27.0544
lclavicle -9.93923e-015 -1.74931e-014
lhumerus -31.9991 11.1774 82.0651
lradius 33.0297
lwrist -2.57888
lhand -17.8308 24.3156
lfingers 7.12502
lthumb 8.43367 54.1272
rfemur -12.7492 1.08571 25.6334
rtibia 19.6769
rfoot -13.8897 -3.86506
rtoes 15.6716
lfemur -43.9073 0.131007 -19.2313
ltibia 71.4806
lfoot -10.3553 -2.49328
ltoes -22.8209
120
root 0.844539 18.0798 12.3515 -171.24 -6.09797 178.796
lowerback 3.65075 0.0571316 -1.92213
upperback 1.05199 -0.0262907 2.13805
thorax -0.96535 -0.0369222 3.27914
lowerneck -11.4331 3.19635 -11.6801
upperneck 39.0685 1.69231 4.00719
head 15.4492 -2.0252 3.63928
rclavicle 3.18055e-015 2.22639e-014
rhumerus -30.9292 -5.93501 -79.3361
rradius 33.2605
rwrist 19.3069
rhand -19.8043 2.69699
rfingers 7.12502
rthumb 6.52872 -27.1824
lclavicle 3.18055e-015 2.22639e-014
lhumerus -32.0291 11.3325 82.0479
lradius 32.8798
lwrist -2.68797
lhand -17.8613 24.073
lfingers 7.12502
lthumb 8.40418 53.8858
rfemur -12.3608 1.00121 25.5008
rtibia 18.7978
rfoot -13.3523 -3.85329
rtoes 16.6689
lfemur -45.2254 0.463903 -19.6198
ltibia 73.4675
lfoot -11.1663 -2.30754
ltoes -23.715
121
root 0.85352 18.0964 12.3537 -171.275 -6.35597 178.653
lowerback 3.79967 0.0360129 -2.00771
upperback 1.07416 -0.0600218 2.11058
thorax -1.02341 -0.0532545 3.30112
lowerneck -12.435 3.54015 -10.4957
upperneck 40.4399 2.17048 2.99876
head 16.4031 -1.93314 3.09049
rclavicle -1.19271e-015 1.74931e-014
rhumerus -30.8481 -6.17939 -79.2636
rradius 32.998
rwrist 19.6639
rhand -20.093 2.39834
rfingers 7.12502
rthumb 6.25006 -27.4895
lclavicle -1.19271e-015 1.74931e-014
lhumerus -32.0964 11.4117 82.0288
lradius 32.6845
lwrist -2.7538
lhand -18.1101 23.7228
lfingers 7.12502
lthumb 8.1641 53.5451
rfemur -11.8639 1.00594 25.393
rtibia 17.8857
rfoot -12.8838 -4.26835
rtoes 17.3447
lfemur -46.4842 0.657466 -19.9937
ltibia 75.3828
lfoot -11.9468 -2.33652
ltoes -24.5668
122
root 0.863326 18.1158 12.3542 -171.307 -6.61037 178.526
lowerback 3.93344 0.0333945 -2.0918
upperback 1.15451 -0.0715779 2.08451
thorax -1.0148 -0.0611243 3.32255
lowerneck -12.8491 3.60164 -10.0859
upperneck 40.8446 2.27184 2.70259
head 16.7339 -1.90417 2.91307
rclavicle -2.38542e-015 -2.38542e-014
rhumerus -30.7093 -6.50309 -79.1867
rradius 32.8398
rwrist 19.9459
rhand -20.3241 2.10115
rfingers 7.12502
rthumb 6.02696 -27.7931
lclavicle -2.38542e-015 -2.38542e-014
lhumerus -32.1185 11.3738 82.0752
lradius 32.6317
lwrist -2.55506
lhand -18.4671 23.7435
lfingers 7.12502
lthumb 7.81947 53.5789
rfemur -11.3429 1.08392 25.303
rtibia 16.9523
rfoot -12.5582 -4.77166
rtoes 17.6512
lfemur -47.6964 0.796472 -20.3544
ltibia 77.1964
lfoot -12.7849 -2.35554
ltoes -25.1182
123
root 0.87085 18.1414 12.3522 -171.268 -6.71305 178.408
lowerback 3.98663 0.0726108 -2.16017
upperback 1.23446 -0.0258701 2.07925
thorax -0.965731 -0.0411752 3.35359
lowerneck -12.994 3.51424 -10.2692
upperneck 40.846 2.18707 2.84595
head 16.7733 -1.93689 3.0021
rclavicle 8.94531e-015 -1.35174e-014
rhumerus -30.6397 -6.73536 -79.0416
rradius 32.9165
rwrist 19.8192
rhand -20.1448 2.00966
rfingers 7.12502
rthumb 6.19998 -27.8796
lclavicle 8.94531e-015 -1.35174e-014
lhumerus -32.1375 11.4335 82.134
lradius 32.615
lwrist -2.57096
lhand -18.4721 24.0215
lfingers 7.12502
lthumb 7.81473 53.8571
rfemur -10.8804 1.10595 25.192
rtibia 15.9853
rfoot -12.2029 -5.05828
rtoes 17.469
lfemur -48.9512 1.07935 -20.7561
ltibia 78.9398
lfoot -13.5634 -2.35706
ltoes -25.542
124
root 0.875588 18.1643 12.3497 -171.285 -6.72596 178.383
lowerback 4.12657 0.133148 -2.08513
upperback 1.28175 0.0527248 2.06136
thorax -1.0012 -0.00315631 3.2892
lowerneck -13.1047 3.4804 -10.4171
upperneck 40.9261 2.14257 2.98053
head 16.8437 -1.9625 3.08602
rclavicle -2.18663e-015 -1.51076e-014
rhumerus -30.6085 -7.02538 -78.9279
rradius 32.93
rwrist 19.5526
rhand -19.9398 1.9631
rfingers 7.12502
rthumb 6.39794 -27.9203
lclavicle -2.18663e-015 -1.51076e-014
lhumerus -32.1863 11.4096 82.1474
lradius 32.5537
lwrist -2.63362
lhand -18.3084 24.2319
lfingers 7.12502
lthumb 7.9727 54.0615
rfemur -10.3343 1.14306 25.158
rtibia 14.9386
rfoot -11.7761 -5.25659
rtoes 17.4433
lfemur -50.1313 1.45931 -21.0644
ltibia 80.6276
lfoot -14.3357 -2.54287
ltoes -25.4515
